<svg width="1000" height="1024" viewBox="0 0 1000 1024" fill="none" xmlns="http://www.w3.org/2000/svg">
<g clip-path="url(#clip0_144_65)">
<rect width="1000" height="1024" fill="#1D1D1D"/>
<path d="M1666.44 197.062C1731.85 301.742 1505.42 448.027 1189.74 645.284C874.064 842.541 588.685 1016.07 523.274 911.394C457.863 806.714 735.225 620.352 1050.9 423.095C1366.58 225.838 1601.03 92.383 1666.44 197.062Z" fill="#8D8D8D"/>
<path d="M878.443 362.062C943.854 466.742 717.419 613.027 401.742 810.284C86.0643 1007.54 -199.315 1181.07 -264.726 1076.39C-330.137 971.714 -52.7746 785.352 262.903 588.095C578.58 390.838 813.032 257.383 878.443 362.062Z" fill="#FD7401"/>
<path d="M1348.44 -270.938C1413.85 -166.258 1187.42 -19.9735 871.742 177.284C556.064 374.541 270.685 548.073 205.274 443.394C139.863 338.714 417.225 152.352 732.903 -44.905C1048.58 -242.162 1283.03 -375.617 1348.44 -270.938Z" fill="#8D8D8D"/>
<path d="M460.443 -47.9376C525.854 56.7417 299.419 203.027 -16.2583 400.284C-331.936 597.541 -617.315 771.073 -682.726 666.394C-748.137 561.714 -470.775 375.352 -155.097 178.095C160.58 -19.1621 395.032 -152.617 460.443 -47.9376Z" fill="#FD7401"/>
</g>
<defs>
<clipPath id="clip0_144_65">
<rect width="1000" height="1024" fill="white"/>
</clipPath>
</defs>
</svg>
