<svg width="45" height="45" viewBox="0 0 45 45" fill="none" xmlns="http://www.w3.org/2000/svg">
<path d="M21.4912 37.5H7.5C7.00272 37.5 6.52581 37.3025 6.17417 36.9508C5.82254 36.5992 5.625 36.1223 5.625 35.625V15C5.625 13.0109 6.41518 11.1032 7.8217 9.6967C9.22822 8.29018 11.1359 7.5 13.125 7.5H31.875C33.8641 7.5 35.7718 8.29018 37.1783 9.6967C38.5848 11.1032 39.375 13.0109 39.375 15V21.3469M13.125 26.25H18.75M13.125 18.75H24.375" stroke="white" stroke-width="4" stroke-linecap="round" stroke-linejoin="round"/>
<path d="M30.9375 33.75C33.5263 33.75 35.625 31.6513 35.625 29.0625C35.625 26.4737 33.5263 24.375 30.9375 24.375C28.3487 24.375 26.25 26.4737 26.25 29.0625C26.25 31.6513 28.3487 33.75 30.9375 33.75Z" stroke="white" stroke-width="4"/>
<path d="M34.6875 32.8125L40.3125 38.4375" stroke="white" stroke-width="4" stroke-linecap="round"/>
</svg>
