<svg width="35" height="29" viewBox="0 0 35 29" fill="none" xmlns="http://www.w3.org/2000/svg">
<path d="M27.089 21.0559L22.5343 16.5411L24.8116 14.3037L27.089 16.5411L32.7226 10.9075L35 13.145L27.089 21.0559ZM15.9817 28.7671L10.9075 24.2123C8.98973 22.481 7.34468 20.9361 5.97238 19.5776C4.60008 18.2192 3.46804 16.9406 2.57626 15.742C1.68448 14.5434 1.03189 13.3847 0.618497 12.266C0.205103 11.1473 -0.00106134 9.97527 4.10842e-06 8.75C4.10842e-06 6.24619 0.839045 4.16218 2.51713 2.49795C4.19521 0.833714 6.28615 0.00106545 8.78996 0C10.175 0 11.4935 0.292998 12.7454 0.878995C13.9973 1.46499 15.0761 2.29071 15.9817 3.35616C16.8874 2.29071 17.9661 1.46499 19.218 0.878995C20.4699 0.292998 21.7884 0 23.1735 0C25.3311 0 27.1423 0.60624 28.6073 1.81872C30.0723 3.0312 31.0712 4.55586 31.6039 6.39269H28.2078C27.7283 5.32724 27.0225 4.52816 26.0902 3.99543C25.1579 3.46271 24.1857 3.19635 23.1735 3.19635C21.8151 3.19635 20.6431 3.56286 19.6575 4.29589C18.672 5.02892 17.753 5.99422 16.9007 7.19178H15.0628C14.2371 5.99315 13.2979 5.02785 12.2452 4.29589C11.1925 3.56393 10.0408 3.19741 8.78996 3.19635C7.27169 3.19635 5.95959 3.72268 4.85366 4.77534C3.74772 5.82801 3.19529 7.15236 3.19635 8.7484C3.19635 9.6274 3.3828 10.5197 3.75571 11.4253C4.12862 12.331 4.79452 13.3767 5.75343 14.5626C6.71233 15.7484 8.01751 17.1335 9.66895 18.7178C11.3204 20.3021 13.4247 22.2135 15.9817 24.4521C16.6743 23.8394 17.4867 23.1336 18.419 22.3345C19.3512 21.5354 20.097 20.8695 20.6564 20.3368L21.016 20.6963L21.7959 21.4763L22.5742 22.2546L22.9338 22.6142C22.3478 23.1469 21.602 23.8064 20.6964 24.5927C19.7907 25.379 18.9916 26.0779 18.2991 26.6895L15.9817 28.7671Z" fill="white"/>
</svg>
