<svg width="52" height="52" viewBox="0 0 52 52" fill="none" xmlns="http://www.w3.org/2000/svg">
<rect x="0.900391" y="0.686249" width="50.4863" height="50.4863" rx="8.07781" fill="#FD7401"/>
<g clip-path="url(#clip0_24_497)">
<path d="M17.0556 16.8419H35.2307C35.4985 16.8419 35.7553 16.9482 35.9447 17.1376C36.134 17.327 36.2404 17.5838 36.2404 17.8516V34.0072C36.2404 34.275 36.134 34.5318 35.9447 34.7212C35.7553 34.9106 35.4985 35.0169 35.2307 35.0169H17.0556C16.7878 35.0169 16.531 34.9106 16.3416 34.7212C16.1523 34.5318 16.0459 34.275 16.0459 34.0072V17.8516C16.0459 17.5838 16.1523 17.327 16.3416 17.1376C16.531 16.9482 16.7878 16.8419 17.0556 16.8419ZM34.221 21.1211L26.2159 28.2901L18.0654 21.0989V32.9975H34.221V21.1211ZM18.5813 18.8613L26.2048 25.5881L33.7181 18.8613H18.5813Z" fill="white"/>
</g>
<defs>
<clipPath id="clip0_24_497">
<rect width="24.2334" height="24.2334" fill="white" transform="translate(14.0269 13.8127)"/>
</clipPath>
</defs>
</svg>
