<svg width="133" height="25" viewBox="0 0 133 25" fill="none" xmlns="http://www.w3.org/2000/svg">
<path d="M55.4492 4.02344V13.1445H52.9492V4.02344H55.4492ZM55.4492 13.8477V18.5938H45.8594V19.707H55.9375V21.6797H43.3984V16.8164H52.9883V15.7812H43.3594V13.8477H55.4492ZM50.957 5.11719V7.01172H49.4922V10.5469C50.2246 10.498 50.9473 10.4297 51.6406 10.3516L51.7578 12.1289C48.2227 12.6953 44.1797 12.793 41.0938 12.793L40.8203 10.8398L42.7344 10.8203V7.01172H41.2891V5.11719H50.957ZM45.1172 10.7617L47.0898 10.7031V7.01172H45.1172V10.7617ZM72.8125 4.02344V21.8359H70.3516V12.3047H67.2266V10.293H70.3516V4.02344H72.8125ZM66.9336 5.50781V7.51953H61.1133V10.4688H66.2891V12.4219H61.1133V15.7812C63.5742 15.7617 65.5469 15.6738 67.7539 15.332L68.0078 17.3242C65.4102 17.7148 63.0859 17.8125 60.0391 17.8125H58.6328V5.50781H66.9336Z" fill="white"/>
<path d="M6.94255 2.78042C6.5743 2.78042 6.22112 2.92671 5.96073 3.18711C5.70033 3.44751 5.55404 3.80068 5.55404 4.16893C5.55404 4.53719 5.70033 4.89036 5.96073 5.15076C6.22112 5.41116 6.5743 5.55745 6.94255 5.55745C7.31081 5.55745 7.66398 5.41116 7.92438 5.15076C8.18477 4.89036 8.33106 4.53719 8.33106 4.16893C8.33106 3.80068 8.18477 3.44751 7.92438 3.18711C7.66398 2.92671 7.31081 2.78042 6.94255 2.78042ZM3.01307 2.78042C3.29994 1.96741 3.83193 1.26338 4.53571 0.765403C5.23949 0.267421 6.08041 0 6.94255 0C7.8047 0 8.64562 0.267421 9.3494 0.765403C10.0532 1.26338 10.5852 1.96741 10.872 2.78042H20.8277C21.1959 2.78042 21.5491 2.92671 21.8095 3.18711C22.0699 3.44751 22.2162 3.80068 22.2162 4.16893C22.2162 4.53719 22.0699 4.89036 21.8095 5.15076C21.5491 5.41116 21.1959 5.55745 20.8277 5.55745H10.872C10.5852 6.37046 10.0532 7.07449 9.3494 7.57247C8.64562 8.07045 7.8047 8.33787 6.94255 8.33787C6.08041 8.33787 5.23949 8.07045 4.53571 7.57247C3.83193 7.07449 3.29994 6.37046 3.01307 5.55745H1.38851C1.02025 5.55745 0.667082 5.41116 0.406686 5.15076C0.146289 4.89036 0 4.53719 0 4.16893C0 3.80068 0.146289 3.44751 0.406686 3.18711C0.667082 2.92671 1.02025 2.78042 1.38851 2.78042H3.01307ZM15.2736 11.1115C14.9054 11.1115 14.5522 11.2578 14.2918 11.5182C14.0314 11.7786 13.8851 12.1317 13.8851 12.5C13.8851 12.8683 14.0314 13.2214 14.2918 13.4818C14.5522 13.7422 14.9054 13.8885 15.2736 13.8885C15.6419 13.8885 15.995 13.7422 16.2554 13.4818C16.5158 13.2214 16.6621 12.8683 16.6621 12.5C16.6621 12.1317 16.5158 11.7786 16.2554 11.5182C15.995 11.2578 15.6419 11.1115 15.2736 11.1115ZM11.3441 11.1115C11.631 10.2985 12.163 9.59445 12.8668 9.09647C13.5706 8.59848 14.4115 8.33106 15.2736 8.33106C16.1358 8.33106 16.9767 8.59848 17.6805 9.09647C18.3842 9.59445 18.9162 10.2985 19.2031 11.1115H20.8277C21.1959 11.1115 21.5491 11.2578 21.8095 11.5182C22.0699 11.7786 22.2162 12.1317 22.2162 12.5C22.2162 12.8683 22.0699 13.2214 21.8095 13.4818C21.5491 13.7422 21.1959 13.8885 20.8277 13.8885H19.2031C18.9162 14.7015 18.3842 15.4055 17.6805 15.9035C16.9767 16.4015 16.1358 16.6689 15.2736 16.6689C14.4115 16.6689 13.5706 16.4015 12.8668 15.9035C12.163 15.4055 11.631 14.7015 11.3441 13.8885H1.38851C1.02025 13.8885 0.667082 13.7422 0.406686 13.4818C0.146289 13.2214 0 12.8683 0 12.5C0 12.1317 0.146289 11.7786 0.406686 11.5182C0.667082 11.2578 1.02025 11.1115 1.38851 11.1115H11.3441ZM6.94255 19.4426C6.5743 19.4426 6.22112 19.5888 5.96073 19.8492C5.70033 20.1096 5.55404 20.4628 5.55404 20.8311C5.55404 21.1993 5.70033 21.5525 5.96073 21.8129C6.22112 22.0733 6.5743 22.2196 6.94255 22.2196C7.31081 22.2196 7.66398 22.0733 7.92438 21.8129C8.18477 21.5525 8.33106 21.1993 8.33106 20.8311C8.33106 20.4628 8.18477 20.1096 7.92438 19.8492C7.66398 19.5888 7.31081 19.4426 6.94255 19.4426ZM3.01307 19.4426C3.29994 18.6295 3.83193 17.9255 4.53571 17.4275C5.23949 16.9295 6.08041 16.6621 6.94255 16.6621C7.8047 16.6621 8.64562 16.9295 9.3494 17.4275C10.0532 17.9255 10.5852 18.6295 10.872 19.4426H20.8277C21.1959 19.4426 21.5491 19.5888 21.8095 19.8492C22.0699 20.1096 22.2162 20.4628 22.2162 20.8311C22.2162 21.1993 22.0699 21.5525 21.8095 21.8129C21.5491 22.0733 21.1959 22.2196 20.8277 22.2196H10.872C10.5852 23.0326 10.0532 23.7366 9.3494 24.2346C8.64562 24.7326 7.8047 25 6.94255 25C6.08041 25 5.23949 24.7326 4.53571 24.2346C3.83193 23.7366 3.29994 23.0326 3.01307 22.2196H1.38851C1.02025 22.2196 0.667082 22.0733 0.406686 21.8129C0.146289 21.5525 0 21.1993 0 20.8311C0 20.4628 0.146289 20.1096 0.406686 19.8492C0.667082 19.5888 1.02025 19.4426 1.38851 19.4426H3.01307Z" fill="white"/>
</svg>
