<svg width="35" height="35" viewBox="0 0 35 35" fill="none" xmlns="http://www.w3.org/2000/svg">
<path d="M17.4125 28C18.025 28 18.543 27.7882 18.9665 27.3647C19.39 26.9412 19.6012 26.4238 19.6 25.8125C19.5988 25.2011 19.3877 24.6831 18.9665 24.2585C18.5453 23.8338 18.0273 23.6226 17.4125 23.625C16.7977 23.6273 16.2802 23.8391 15.8602 24.2602C15.4402 24.6814 15.2285 25.1988 15.225 25.8125C15.2215 26.4261 15.4332 26.9441 15.8602 27.3665C16.2872 27.7888 16.8047 28 17.4125 28ZM15.8375 21.2625H19.075C19.075 20.3 19.1847 19.5417 19.404 18.9875C19.6233 18.4333 20.2428 17.675 21.2625 16.7125C22.0208 15.9542 22.6187 15.232 23.0562 14.546C23.4937 13.86 23.7125 13.0363 23.7125 12.075C23.7125 10.4417 23.1146 9.1875 21.9187 8.3125C20.7229 7.4375 19.3083 7 17.675 7C16.0125 7 14.6638 7.4375 13.629 8.3125C12.5942 9.1875 11.872 10.2375 11.4625 11.4625L14.35 12.6C14.4958 12.075 14.8242 11.5062 15.3352 10.8937C15.8462 10.2812 16.6262 9.975 17.675 9.975C18.6083 9.975 19.3083 10.2305 19.775 10.7415C20.2417 11.2525 20.475 11.8137 20.475 12.425C20.475 13.0083 20.3 13.5555 19.95 14.0665C19.6 14.5775 19.1625 15.0512 18.6375 15.4875C17.3542 16.625 16.5667 17.4854 16.275 18.0687C15.9833 18.6521 15.8375 19.7167 15.8375 21.2625ZM17.5 35C15.0792 35 12.8042 34.5409 10.675 33.6227C8.54583 32.7046 6.69375 31.4574 5.11875 29.8812C3.54375 28.3051 2.29717 26.453 1.379 24.325C0.460835 22.197 0.00116888 19.922 2.21519e-06 17.5C-0.00116445 15.078 0.458502 12.803 1.379 10.675C2.2995 8.547 3.54608 6.69492 5.11875 5.11875C6.69141 3.54259 8.5435 2.29601 10.675 1.37901C12.8065 0.462009 15.0815 0.00234217 17.5 8.83837e-06C19.9185 -0.00232449 22.1935 0.457342 24.325 1.37901C26.4565 2.30067 28.3086 3.54725 29.8812 5.11875C31.4539 6.69025 32.7011 8.54233 33.6227 10.675C34.5444 12.8077 35.0035 15.0827 35 17.5C34.9965 19.9173 34.5368 22.1923 33.621 24.325C32.7051 26.4576 31.4586 28.3097 29.8812 29.8812C28.3039 31.4527 26.4518 32.6999 24.325 33.6227C22.1982 34.5456 19.9232 35.0046 17.5 35ZM17.5 31.5C21.4083 31.5 24.7187 30.1437 27.4312 27.4312C30.1437 24.7187 31.5 21.4083 31.5 17.5C31.5 13.5917 30.1437 10.2812 27.4312 7.56875C24.7187 4.85625 21.4083 3.5 17.5 3.5C13.5917 3.5 10.2812 4.85625 7.56875 7.56875C4.85625 10.2812 3.5 13.5917 3.5 17.5C3.5 21.4083 4.85625 24.7187 7.56875 27.4312C10.2812 30.1437 13.5917 31.5 17.5 31.5Z" fill="white"/>
</svg>
