<svg width="100" height="100" viewBox="0 0 100 100" fill="none" xmlns="http://www.w3.org/2000/svg">
<g clip-path="url(#clip0_155_95)">
<rect width="100" height="100" rx="50" fill="#5D5D5D"/>
<path d="M101.839 7.46462C106.174 14.3152 91.1692 23.8886 70.2511 36.7979C49.3331 49.7071 30.4228 61.0637 26.0884 54.2131C21.754 47.3625 40.1331 35.1663 61.0511 22.257C81.9692 9.3478 97.5049 0.614016 101.839 7.46462Z" fill="#2D2D2D"/>
<path d="M129.852 39.1768C134.186 46.0274 119.182 55.6008 98.2636 68.51C77.3456 81.4193 58.4352 92.7758 54.1008 85.9252C49.7665 79.0746 68.1456 66.8784 89.0636 53.9692C109.982 41.06 125.517 32.3262 129.852 39.1768Z" fill="#2D2D2D"/>
<path d="M69.5507 51.2562C73.8851 58.1068 58.8806 67.6803 37.9626 80.5895C17.0445 93.4987 -1.8658 104.855 -6.20019 98.0047C-10.5346 91.1541 7.84454 78.9579 28.7626 66.0487C49.6806 53.1394 65.2163 44.4056 69.5507 51.2562Z" fill="#FD7401"/>
<path d="M55.4738 11.2964C59.8082 18.147 44.8037 27.7204 23.8857 40.6297C2.96764 53.5389 -15.9427 64.8955 -20.2771 58.0449C-24.6115 51.1943 -6.23237 38.998 14.6857 26.0888C35.6037 13.1796 51.1394 4.4458 55.4738 11.2964Z" fill="#FD7401"/>
</g>
<defs>
<clipPath id="clip0_155_95">
<rect width="100" height="100" rx="50" fill="white"/>
</clipPath>
</defs>
</svg>
