<svg width="188" height="45" viewBox="0 0 188 45" fill="none" xmlns="http://www.w3.org/2000/svg">
<path d="M70.969 14.248C72.729 14.248 74.273 14.592 75.601 15.28C76.945 15.968 77.977 16.952 78.697 18.232C79.433 19.496 79.801 20.968 79.801 22.648C79.801 24.328 79.433 25.8 78.697 27.064C77.977 28.312 76.945 29.28 75.601 29.968C74.273 30.656 72.729 31 70.969 31H65.113V14.248H70.969ZM70.849 28.144C72.609 28.144 73.969 27.664 74.929 26.704C75.889 25.744 76.369 24.392 76.369 22.648C76.369 20.904 75.889 19.544 74.929 18.568C73.969 17.576 72.609 17.08 70.849 17.08H68.473V28.144H70.849ZM94.6762 24.064C94.6762 24.544 94.6442 24.976 94.5802 25.36H84.8602C84.9402 26.32 85.2762 27.072 85.8682 27.616C86.4602 28.16 87.1882 28.432 88.0522 28.432C89.3002 28.432 90.1882 27.896 90.7162 26.824H94.3402C93.9562 28.104 93.2202 29.16 92.1322 29.992C91.0442 30.808 89.7082 31.216 88.1242 31.216C86.8442 31.216 85.6922 30.936 84.6682 30.376C83.6602 29.8 82.8682 28.992 82.2922 27.952C81.7322 26.912 81.4522 25.712 81.4522 24.352C81.4522 22.976 81.7322 21.768 82.2922 20.728C82.8522 19.688 83.6362 18.888 84.6442 18.328C85.6522 17.768 86.8122 17.488 88.1242 17.488C89.3882 17.488 90.5162 17.76 91.5082 18.304C92.5162 18.848 93.2922 19.624 93.8362 20.632C94.3962 21.624 94.6762 22.768 94.6762 24.064ZM91.1962 23.104C91.1802 22.24 90.8682 21.552 90.2602 21.04C89.6522 20.512 88.9082 20.248 88.0282 20.248C87.1962 20.248 86.4922 20.504 85.9162 21.016C85.3562 21.512 85.0122 22.208 84.8842 23.104H91.1962ZM102.673 27.904L106.033 17.704H109.609L104.689 31H100.609L95.7127 17.704H99.3127L102.673 27.904ZM114.856 28.336H120.376V31H111.496V14.248H114.856V28.336ZM121.647 24.304C121.647 22.96 121.911 21.768 122.439 20.728C122.983 19.688 123.711 18.888 124.623 18.328C125.551 17.768 126.583 17.488 127.719 17.488C128.711 17.488 129.575 17.688 130.311 18.088C131.063 18.488 131.663 18.992 132.111 19.6V17.704H135.495V31H132.111V29.056C131.679 29.68 131.079 30.2 130.311 30.616C129.559 31.016 128.687 31.216 127.695 31.216C126.575 31.216 125.551 30.928 124.623 30.352C123.711 29.776 122.983 28.968 122.439 27.928C121.911 26.872 121.647 25.664 121.647 24.304ZM132.111 24.352C132.111 23.536 131.951 22.84 131.631 22.264C131.311 21.672 130.879 21.224 130.335 20.92C129.791 20.6 129.207 20.44 128.583 20.44C127.959 20.44 127.383 20.592 126.855 20.896C126.327 21.2 125.895 21.648 125.559 22.24C125.239 22.816 125.079 23.504 125.079 24.304C125.079 25.104 125.239 25.808 125.559 26.416C125.895 27.008 126.327 27.464 126.855 27.784C127.399 28.104 127.975 28.264 128.583 28.264C129.207 28.264 129.791 28.112 130.335 27.808C130.879 27.488 131.311 27.04 131.631 26.464C131.951 25.872 132.111 25.168 132.111 24.352ZM142.689 20.464V26.896C142.689 27.344 142.793 27.672 143.001 27.88C143.225 28.072 143.593 28.168 144.105 28.168H145.665V31H143.553C140.721 31 139.305 29.624 139.305 26.872V20.464H137.721V17.704H139.305V14.416H142.689V17.704H145.665V20.464H142.689ZM151.994 20.464V26.896C151.994 27.344 152.098 27.672 152.306 27.88C152.53 28.072 152.898 28.168 153.41 28.168H154.97V31H152.858C150.026 31 148.61 29.624 148.61 26.872V20.464H147.026V17.704H148.61V14.416H151.994V17.704H154.97V20.464H151.994ZM169.746 24.064C169.746 24.544 169.714 24.976 169.65 25.36H159.93C160.01 26.32 160.346 27.072 160.938 27.616C161.53 28.16 162.258 28.432 163.122 28.432C164.37 28.432 165.258 27.896 165.786 26.824H169.41C169.026 28.104 168.29 29.16 167.202 29.992C166.114 30.808 164.778 31.216 163.194 31.216C161.914 31.216 160.762 30.936 159.738 30.376C158.73 29.8 157.938 28.992 157.362 27.952C156.802 26.912 156.522 25.712 156.522 24.352C156.522 22.976 156.802 21.768 157.362 20.728C157.922 19.688 158.706 18.888 159.714 18.328C160.722 17.768 161.882 17.488 163.194 17.488C164.458 17.488 165.586 17.76 166.578 18.304C167.586 18.848 168.362 19.624 168.906 20.632C169.466 21.624 169.746 22.768 169.746 24.064ZM166.266 23.104C166.25 22.24 165.938 21.552 165.33 21.04C164.722 20.512 163.978 20.248 163.098 20.248C162.266 20.248 161.562 20.504 160.986 21.016C160.426 21.512 160.082 22.208 159.954 23.104H166.266Z" fill="white"/>
<rect y="3.1395" width="4.18605" height="41.8605" rx="2.09302" fill="#FD7401"/>
<rect x="16.7442" y="3.1395" width="4.18605" height="41.8605" rx="2.09302" fill="#FD7401"/>
<rect x="33.4882" y="3.1395" width="4.18605" height="41.8605" rx="2.09302" fill="#FD7401"/>
<rect x="8.37189" width="4.18605" height="41.8605" rx="2.09302" fill="#FEFEFE"/>
<rect x="25.1161" width="4.18605" height="41.8605" rx="2.09302" fill="#FEFEFE"/>
</svg>
