<svg width="35" height="35" viewBox="0 0 35 35" fill="none" xmlns="http://www.w3.org/2000/svg">
<path d="M15.6192 17.4998C15.6192 17.9971 15.8167 18.474 16.1683 18.8256C16.52 19.1772 16.9969 19.3748 17.4941 19.3748C17.9914 19.3748 18.4683 19.1772 18.82 18.8256C19.1716 18.474 19.3691 17.9971 19.3691 17.4998C19.3691 17.0025 19.1716 16.5256 18.82 16.174C18.4683 15.8223 17.9914 15.6248 17.4941 15.6248C16.9969 15.6248 16.52 15.8223 16.1683 16.174C15.8167 16.5256 15.6192 17.0025 15.6192 17.4998ZM23.4316 17.4998C23.4316 17.9971 23.6291 18.474 23.9807 18.8256C24.3324 19.1772 24.8093 19.3748 25.3065 19.3748C25.8038 19.3748 26.2807 19.1772 26.6324 18.8256C26.984 18.474 27.1815 17.9971 27.1815 17.4998C27.1815 17.0025 26.984 16.5256 26.6324 16.174C26.2807 15.8223 25.8038 15.6248 25.3065 15.6248C24.8093 15.6248 24.3324 15.8223 23.9807 16.174C23.6291 16.5256 23.4316 17.0025 23.4316 17.4998ZM7.80676 17.4998C7.80676 17.9971 8.00431 18.474 8.35593 18.8256C8.70756 19.1772 9.18447 19.3748 9.68174 19.3748C10.179 19.3748 10.6559 19.1772 11.0076 18.8256C11.3592 18.474 11.5567 17.9971 11.5567 17.4998C11.5567 17.0025 11.3592 16.5256 11.0076 16.174C10.6559 15.8223 10.179 15.6248 9.68174 15.6248C9.18447 15.6248 8.70756 15.8223 8.35593 16.174C8.00431 16.5256 7.80676 17.0025 7.80676 17.4998ZM33.6346 10.7186C32.7518 8.62099 31.4862 6.7382 29.8729 5.12103C28.2709 3.51326 26.3691 2.23526 24.2753 1.35936C22.1269 0.457026 19.8457 0 17.4941 0H17.416C15.0489 0.0117186 12.7559 0.480463 10.5997 1.40233C8.5238 2.28721 6.63987 3.56748 5.05289 5.17181C3.45526 6.78507 2.20137 8.66005 1.33419 10.7499C0.435763 12.9139 -0.0173564 15.2147 -0.00563777 17.5818C0.00761696 20.2946 0.6494 22.9673 1.86934 25.3903V31.3277C1.86934 31.8043 2.05865 32.2613 2.39562 32.5983C2.7326 32.9353 3.18964 33.1246 3.66619 33.1246H9.60752C12.0305 34.3445 14.7033 34.9863 17.416 34.9996H17.498C19.8379 34.9996 22.1074 34.5464 24.2441 33.6597C26.3273 32.7943 28.222 31.5312 29.8221 29.941C31.4354 28.3434 32.7049 26.4762 33.5916 24.3942C34.5135 22.238 34.9822 19.9451 34.9939 17.5779C35.0056 15.199 34.5447 12.8905 33.6346 10.7186ZM27.7323 27.8278C24.994 30.5387 21.3613 32.0308 17.4941 32.0308H17.4277C15.0723 32.0191 12.7325 31.4332 10.6661 30.3317L10.338 30.1559H4.83805V24.6559L4.66227 24.3278C3.56072 22.2614 2.97479 19.9216 2.96308 17.5662C2.94745 13.6717 4.43571 10.0155 7.16615 7.26163C9.89268 4.50776 13.5372 2.98434 17.4316 2.96871H17.498C19.4511 2.96871 21.3457 3.34761 23.1308 4.0976C24.873 4.82806 26.4354 5.87883 27.7792 7.22257C29.119 8.56239 30.1737 10.1288 30.9041 11.8709C31.6619 13.6756 32.0408 15.5896 32.033 17.5662C32.0096 21.4568 30.4823 25.1012 27.7323 27.8278Z" fill="white"/>
</svg>
