<svg width="30" height="30" viewBox="0 0 30 30" fill="none" xmlns="http://www.w3.org/2000/svg">
<path d="M19.025 7.5375L22.1875 5.1125L18.2 5L16.875 1.25L15.55 5L11.5625 5.1125L14.725 7.5375L13.5875 11.3625L16.875 9.1L20.1625 11.3625L19.025 7.5375Z" fill="#FEE500"/>
<path d="M24.5125 15.3125L26.5625 13.75L23.9875 13.6875L23.125 11.25L22.2625 13.6875L19.6875 13.75L21.7375 15.3125L21 17.7875L23.125 16.325L25.25 17.7875L24.5125 15.3125Z" fill="#FEE500"/>
<path d="M8.75 7.49999C8.75 15.1 14.9 21.25 22.5 21.25C23.1625 21.25 23.8125 21.2 24.45 21.1125C22.4375 24.2 18.9625 26.25 15 26.25C8.7875 26.25 3.75 21.2125 3.75 15C3.75 11.0375 5.8 7.56249 8.8875 5.54999C8.8 6.18749 8.75 6.83749 8.75 7.49999Z" fill="#FEE500" stroke="#FEE500" stroke-width="2" stroke-linecap="round" stroke-linejoin="round"/>
</svg>
