<svg width="37" height="37" viewBox="0 0 37 37" fill="none" xmlns="http://www.w3.org/2000/svg">
<path d="M4.17362 14.125C4.17362 10.644 5.6828 7.30564 8.36914 4.84422C11.0555 2.38281 14.699 1 18.498 1C22.2971 1 25.9405 2.38281 28.6269 4.84422C31.3132 7.30564 32.8224 10.644 32.8224 14.125C32.8224 20.6547 34.4737 25.901 35.7868 27.9792C35.9262 28.2005 35.9997 28.4515 36 28.707C36.0002 28.9626 35.9272 29.2137 35.7882 29.4353C35.6491 29.6568 35.449 29.841 35.2078 29.9694C34.9667 30.0977 34.6929 30.1658 34.414 30.1667H2.58203C2.30346 30.1651 2.0302 30.0966 1.78958 29.968C1.54896 29.8394 1.3494 29.6551 1.21084 29.4337C1.07228 29.2123 0.999579 28.9614 1 28.7061C1.00043 28.4509 1.07396 28.2002 1.21325 27.9792C2.52433 25.901 4.17362 20.6529 4.17362 14.125Z" stroke="#FAFAFA" stroke-width="2" stroke-linecap="round" stroke-linejoin="round"/>
<path d="M12.1318 30.1667C12.1318 31.7138 12.8026 33.1975 13.9965 34.2915C15.1904 35.3854 16.8098 36 18.4982 36C20.1867 36 21.806 35.3854 23 34.2915C24.1939 33.1975 24.8646 31.7138 24.8646 30.1667" stroke="#FAFAFA" stroke-width="2" stroke-linecap="round" stroke-linejoin="round"/>
</svg>
