<svg width="35" height="35" viewBox="0 0 35 35" fill="none" xmlns="http://www.w3.org/2000/svg">
<path d="M30.8013 22.6857C29.6146 20.6445 28.9843 17.7146 28.9843 14.2188C28.9843 11.1729 27.7744 8.25181 25.6206 6.09807C23.4669 3.94433 20.5458 2.73438 17.4999 2.73438C14.4541 2.73438 11.533 3.94433 9.37927 6.09807C7.22553 8.25181 6.01557 11.1729 6.01557 14.2188C6.01557 17.716 5.38803 20.6445 4.20131 22.6857C3.95916 23.1021 3.8308 23.5748 3.82912 24.0564C3.82744 24.5381 3.9525 25.0117 4.19174 25.4297C4.42947 25.8479 4.77453 26.1951 5.19128 26.4355C5.60803 26.6758 6.08137 26.8006 6.56245 26.7969H11.5089C11.6446 28.2921 12.3345 29.6825 13.443 30.695C14.5515 31.7075 15.9986 32.2689 17.4999 32.2689C19.0013 32.2689 20.4484 31.7075 21.5569 30.695C22.6654 29.6825 23.3553 28.2921 23.491 26.7969H28.4374C28.9178 26.7999 29.3903 26.6748 29.8063 26.4344C30.2223 26.1941 30.5667 25.8473 30.804 25.4297C31.0443 25.0123 31.1706 24.539 31.1701 24.0573C31.1696 23.5757 31.0424 23.1027 30.8013 22.6857ZM17.4999 28.9844C16.8696 28.9845 16.2585 28.7668 15.7702 28.3682C15.2819 27.9696 14.9463 27.4145 14.8203 26.7969H20.1796C20.0536 27.4145 19.718 27.9696 19.2297 28.3682C18.7413 28.7668 18.1303 28.9845 17.4999 28.9844ZM7.47299 23.5156C8.68295 21.0547 9.29682 17.9293 9.29682 14.2188C9.29682 12.0431 10.1611 9.95665 11.6995 8.41826C13.2378 6.87988 15.3243 6.01563 17.4999 6.01562C19.6756 6.01563 21.762 6.87988 23.3004 8.41826C24.8388 9.95665 25.7031 12.0431 25.7031 14.2188C25.7031 17.9279 26.3156 21.0547 27.5255 23.5156H7.47299Z" fill="white"/>
</svg>
