<svg width="51" height="51" viewBox="0 0 51 51" fill="none" xmlns="http://www.w3.org/2000/svg">
<rect width="50.4863" height="50.4863" rx="8.07781" fill="#FD7401"/>
<g clip-path="url(#clip0_130_102)">
<path d="M32.3111 23.2237H33.3209C33.5887 23.2237 33.8455 23.3301 34.0348 23.5194C34.2242 23.7088 34.3306 23.9656 34.3306 24.2334V34.3307C34.3306 34.5985 34.2242 34.8553 34.0348 35.0447C33.8455 35.234 33.5887 35.3404 33.3209 35.3404H17.1652C16.8974 35.3404 16.6406 35.234 16.4513 35.0447C16.2619 34.8553 16.1555 34.5985 16.1555 34.3307V24.2334C16.1555 23.9656 16.2619 23.7088 16.4513 23.5194C16.6406 23.3301 16.8974 23.2237 17.1652 23.2237H18.175V22.214C18.175 21.2858 18.3578 20.3667 18.713 19.5091C19.0682 18.6516 19.5888 17.8724 20.2452 17.2161C20.9015 16.5597 21.6807 16.0391 22.5382 15.6839C23.3958 15.3287 24.3149 15.1459 25.2431 15.1459C26.1712 15.1459 27.0904 15.3287 27.9479 15.6839C28.8054 16.0391 29.5846 16.5597 30.2409 17.2161C30.8973 17.8724 31.4179 18.6516 31.7731 19.5091C32.1283 20.3667 32.3111 21.2858 32.3111 22.214V23.2237ZM18.175 25.2431V33.3209H32.3111V25.2431H18.175ZM24.2333 27.2626H26.2528V31.3015H24.2333V27.2626ZM30.2917 23.2237V22.214C30.2917 20.875 29.7598 19.5908 28.813 18.644C27.8662 17.6972 26.582 17.1653 25.2431 17.1653C23.9041 17.1653 22.6199 17.6972 21.6731 18.644C20.7263 19.5908 20.1944 20.875 20.1944 22.214V23.2237H30.2917Z" fill="white"/>
</g>
<defs>
<clipPath id="clip0_130_102">
<rect width="24.2334" height="24.2334" fill="white" transform="translate(13.1265 13.1264)"/>
</clipPath>
</defs>
</svg>
