<svg width="20" height="20" viewBox="0 0 20 20" fill="none" xmlns="http://www.w3.org/2000/svg">
<path d="M7.39687 14.4879C5.32954 14.4879 3.58009 13.8083 2.14851 12.449C0.716928 11.0898 0.000759255 9.42959 6.02106e-07 7.46845C-0.000758051 5.50732 0.715411 3.84712 2.14851 2.48786C3.5816 1.1286 5.33106 0.448975 7.39687 0.448975C9.46268 0.448975 11.2125 1.1286 12.6464 2.48786C14.0802 3.84712 14.796 5.50732 14.7937 7.46845C14.7937 8.26039 14.661 9.00734 14.3954 9.70929C14.1299 10.4112 13.7696 11.0322 13.3144 11.5721L19.6871 17.6197C19.8957 17.8177 20 18.0697 20 18.3756C20 18.6816 19.8957 18.9336 19.6871 19.1316C19.4784 19.3296 19.2129 19.4286 18.8905 19.4286C18.568 19.4286 18.3025 19.3296 18.0939 19.1316L11.7212 13.084C11.1522 13.516 10.4979 13.858 9.75818 14.11C9.01849 14.3619 8.23139 14.4879 7.39687 14.4879ZM7.39687 12.3281C8.81935 12.3281 10.0286 11.8558 11.0248 10.9112C12.0209 9.96667 12.5185 8.81907 12.5178 7.46845C12.517 6.11783 12.0193 4.9706 11.0248 4.02675C10.0302 3.0829 8.82086 2.61025 7.39687 2.60881C5.97288 2.60737 4.76396 3.08002 3.77013 4.02675C2.77629 4.97348 2.27824 6.12071 2.27596 7.46845C2.27368 8.81619 2.77174 9.96379 3.77013 10.9112C4.76852 11.8587 5.97743 12.331 7.39687 12.3281Z" fill = "current" />
</svg>
