<svg width="170" height="80" viewBox="0 0 170 80" fill="none" xmlns="http://www.w3.org/2000/svg">
<g clip-path="url(#clip0_175_191)">
<path d="M58.1487 28.6912C57.1531 33.2737 53.8006 48.5262 53.8006 48.5262H60.5294C60.9325 46.6462 61.2456 44.9156 61.7044 43.0044C62.515 39.6169 63.4244 38.2756 65.8294 38.2756C66.89 38.2756 67.9875 38.6362 67.9875 40.085C67.9875 40.7437 66.475 47.2131 66.2094 48.5269H72.9056C72.9056 48.5269 74.9819 38.4544 74.9994 38.3394C75.0694 38.0006 75.2212 37.0062 75.2212 37.0062C75.2212 34.6 72.09 33.4656 70.4606 33.4187C69.2819 33.3856 70.17 33.3987 68.9687 33.4187C67.0406 33.4519 64.4781 34.5231 63.3519 35.6725L63.225 35.7675L63.2887 35.6087L64.8119 28.8175C64.8056 28.7691 64.7829 28.7243 64.7475 28.6906H58.1475L58.1487 28.6912ZM26.2862 33.2287C25.6262 33.2187 24.5394 33.2194 22.795 33.2612C19.3075 33.3444 14.0994 34.4187 14.0994 39.4175C14.0994 42.245 16.7244 42.4912 19.0494 42.7187C20.8681 42.8981 22.6694 43.1106 24.4444 43.29C24.9556 43.3375 25.46 43.4525 25.46 44.02C25.46 44.9825 24.6662 45.2869 23.5556 45.3844C22.4456 45.4825 22.1912 45.3844 22.1912 45.3844C21.4912 45.3844 20.2937 44.9612 20.4456 43.9562H12.5437V45.1312C12.5469 48.9125 18.65 48.9269 19.78 49.0656H21.7475L24.7625 48.9706C28.7875 48.705 33.1437 47.4987 33.3312 42.6869C33.4612 39.3669 29.2187 39.4619 27.365 39.2587H26.8575C26.7625 39.2587 23.8806 38.9662 22.4462 38.815C22.2275 38.79 21.24 38.6444 21.24 38.0525C21.24 36.8775 23.4006 36.91 23.8744 36.91C24.6356 36.91 26.2831 36.8775 26.2225 38.1787H33.6812C33.6962 37.9019 33.8081 37.6525 33.8081 37.3537C33.8081 34.0075 29.5144 33.3725 27.1756 33.26C27.1756 33.26 26.9462 33.2394 26.2862 33.2287ZM46.3425 33.2287C46.0475 33.2181 45.6437 33.2262 43.8987 33.2612C40.405 33.3312 35.1719 34.45 35.1719 39.45C35.1719 42.2769 37.7981 42.5231 40.1219 42.75C41.9406 42.93 43.7419 43.1425 45.5175 43.3219C46.0287 43.3694 46.5331 43.4844 46.5331 44.0519C46.5331 45.0144 45.5431 45.3581 44.6287 45.4162C43.7144 45.4744 43.2644 45.4162 43.2644 45.4162C42.5631 45.4162 41.3669 45.0244 41.5187 44.02H33.6169V45.195C33.6106 48.77 39.6981 49.0044 40.8525 49.0662L42.82 49.13L45.835 49.035C49.86 48.7706 54.2006 47.5619 54.4037 42.7512C54.5375 39.5787 50.4412 39.6219 48.5006 39.3556L47.93 39.2912C47.835 39.2912 44.9531 39.03 43.5187 38.8787C43.3 38.855 42.3437 38.6769 42.3437 38.085C42.3437 36.9112 44.4731 36.9431 44.9462 36.9431C45.7087 36.9431 47.3556 36.9106 47.295 38.2119H54.7531C54.7681 37.935 54.88 37.6856 54.88 37.3869C54.88 34.04 50.565 33.3931 48.2475 33.3256C46.8287 33.2819 46.6387 33.24 46.3431 33.2287H46.3425ZM8.36061 28.2787C8.36061 27.055 7.49373 26.1206 6.20248 26.1206C4.99123 26.1206 4.01248 27.055 4.01248 28.2787C4.01248 29.4256 4.94373 30.4687 6.17061 30.4687C7.33061 30.4687 8.36061 29.555 8.36061 28.2787ZM14.2956 23.1687C14.2956 22.2375 13.6862 21.0437 12.3912 21.0437C11.2131 21.0437 10.6137 22.0781 10.6137 23.0106C10.6137 23.9125 11.2512 25.2319 12.5181 25.2319C13.6956 25.2319 14.295 24.0719 14.295 23.1694L14.2956 23.1687ZM8.99186 57.7294C7.91186 57.7294 6.48686 59.1406 6.48686 60.2044C6.48686 60.7456 6.73936 61.0294 7.32811 61.0294C8.09811 61.0294 9.10748 60.3775 9.58623 59.4106C9.67998 59.2212 9.74873 58.9006 9.74873 58.84V58.3006C9.74873 57.8506 9.30686 57.73 8.99061 57.73L8.99186 57.7294ZM4.39373 55.0956C3.19998 55.0956 1.53748 56.3406 1.53748 57.73C1.53748 58.4175 1.96498 58.7456 2.58498 58.7456C3.73248 58.7456 5.53623 57.5425 5.53623 56.08C5.53623 55.3587 5.03186 55.0956 4.39373 55.0956ZM1.09373 38.0531C2.22186 38.0531 3.79061 37.2737 3.79061 35.6731C3.79061 34.4644 2.79436 33.7056 1.69686 33.7056C0.503105 33.7056 -1.03314 34.5337 -1.03314 36.085C-1.03314 37.2787 -0.0687694 38.0525 1.09311 38.0525L1.09373 38.0531ZM2.45811 51.0969C2.45811 50.1644 1.76811 49.7956 0.998106 49.7956C-0.126894 49.7956 -2.08002 50.8769 -2.08002 52.43C-2.08002 53.3062 -1.48314 53.6987 -0.651895 53.6987C0.41248 53.6987 2.45811 52.7344 2.45811 51.0969ZM1.69623 43.8606C1.69623 42.75 0.78998 42.2419 -0.17627 42.2419C-0.23752 42.2419 -0.28252 42.2231 -0.526269 42.2419C-1.92127 42.3587 -3.22314 43.5606 -3.22314 44.7806C-3.22314 45.9212 -2.18564 46.3994 -1.28752 46.3994C-0.125019 46.3994 1.69623 45.5081 1.69623 43.8606ZM14.0419 58.1419C13.0294 58.1419 11.8519 59.4944 11.8519 60.4269C11.8519 60.5644 11.8544 60.8331 12.1056 60.9981C12.3681 61.1706 12.8381 61.1856 13.4056 60.8075C14.1681 60.2994 14.6756 59.4 14.6756 58.8075C14.6756 58.4825 14.4675 58.1419 14.0412 58.1419H14.0419ZM28.4187 21.7725C27.5687 21.7725 27.275 23.0912 27.275 23.5181C27.275 23.9406 27.4219 24.8819 28.1644 24.8819C29.0356 24.8819 29.3069 23.5631 29.3069 23.1362C29.3069 22.7775 29.115 21.7719 28.4194 21.7712L28.4187 21.7725ZM31.1787 25.2637C30.3937 25.2637 30.1 26.5531 30.1 26.945C30.1 27.2737 30.225 28.0562 30.83 28.0562C31.5937 28.0562 31.8775 26.7987 31.8775 26.4062C31.8775 26.1456 31.7619 25.2637 31.1787 25.2637ZM24.2606 19.3925C23.2731 19.3925 22.9594 20.6281 22.9594 21.2012C22.9594 21.5787 23.1919 22.9237 24.1344 22.915C25.0756 22.9056 25.4344 21.6819 25.4344 21.0744C25.4344 20.6019 25.2081 19.3925 24.2606 19.3925ZM22.9275 54.2387C22.0319 54.2387 21.4044 55.6075 21.4044 56.1431C21.4044 56.4225 21.4756 56.7137 21.8806 56.7137C22.7662 56.7137 23.4031 55.3681 23.4031 54.8094C23.4031 54.5481 23.3075 54.2381 22.9269 54.2381L22.9275 54.2387ZM18.7387 18.885C17.6594 18.885 17.2469 20.1662 17.2469 20.8525C17.2469 21.5731 17.7781 22.82 18.8344 22.82C19.9044 22.82 20.3131 21.5406 20.2937 20.8844C20.2687 20.0444 19.9162 18.885 18.7387 18.885ZM18.7387 56.8094C17.7575 56.8094 16.93 58.2156 16.93 58.9356C16.93 59.2981 17.095 59.5069 17.4694 59.5069C18.3569 59.5069 19.2787 58.1506 19.2787 57.4444C19.2787 57.1344 19.215 56.81 18.7394 56.81L18.7387 56.8094Z" fill="#231F20"/>
</g>
<path d="M103.387 35.8828C103.246 34.5469 102.168 33.75 100.457 33.75C98.6758 33.75 97.6914 34.5703 97.668 35.6953C97.6445 36.9141 98.9336 37.4766 100.387 37.8047L101.91 38.1797C104.816 38.8359 106.996 40.3125 106.996 43.1484C106.996 46.2656 104.559 48.2344 100.434 48.2344C96.332 48.2344 93.707 46.3359 93.6133 42.7031H97.0352C97.1523 44.4141 98.5117 45.2812 100.387 45.2812C102.238 45.2812 103.434 44.4141 103.434 43.1484C103.434 42 102.379 41.4609 100.527 40.9922L98.6758 40.5469C95.8164 39.8438 94.0586 38.4141 94.0586 35.9297C94.0586 32.8359 96.7773 30.7969 100.48 30.7969C104.23 30.7969 106.715 32.8828 106.762 35.8828H103.387ZM118.504 35.8828C118.363 34.5469 117.285 33.75 115.574 33.75C113.793 33.75 112.809 34.5703 112.785 35.6953C112.762 36.9141 114.051 37.4766 115.504 37.8047L117.027 38.1797C119.934 38.8359 122.113 40.3125 122.113 43.1484C122.113 46.2656 119.676 48.2344 115.551 48.2344C111.449 48.2344 108.824 46.3359 108.73 42.7031H112.152C112.27 44.4141 113.629 45.2812 115.504 45.2812C117.355 45.2812 118.551 44.4141 118.551 43.1484C118.551 42 117.496 41.4609 115.645 40.9922L113.793 40.5469C110.934 39.8438 109.176 38.4141 109.176 35.9297C109.176 32.8359 111.895 30.7969 115.598 30.7969C119.348 30.7969 121.832 32.8828 121.879 35.8828H118.504ZM124.41 48V31.0312H127.926V38.0625H135.285V31.0312H138.824V48H135.285V40.9688H127.926V48H124.41Z" fill="white"/>
<defs>
<clipPath id="clip0_175_191">
<rect width="80" height="80" fill="white"/>
</clipPath>
</defs>
</svg>
