<svg width="29" height="30" viewBox="0 0 29 30" fill="none" xmlns="http://www.w3.org/2000/svg">
<path d="M7.64371 10.0151C5.33036 12.9586 5.37086 18.1875 8.32747 20.7795C11.6843 23.7206 16.4087 23.69 19.3796 20.9847C22.9414 17.7393 22.7365 12.3383 19.5869 9.27924C16.4206 6.20369 10.7623 6.04331 7.64371 10.0151Z" fill="#FCC11A"/>
<path d="M11.4388 9.08146C10.6493 8.70114 9.78576 9.73696 9.40951 10.4439C9.03325 11.1531 8.68372 12.5424 9.48558 12.8981C10.2874 13.2516 10.8631 12.652 11.4409 11.6162C12.0145 10.5804 12.3414 9.51771 11.4388 9.08146Z" fill="#FEE269"/>
<path d="M14.2824 4.4953C14.0622 4.91999 14.1356 5.24704 14.5735 5.35444C15.0115 5.46183 17.7363 5.91825 17.9659 5.93289C18.2997 5.95486 18.4228 5.69614 18.3826 5.39593C18.34 5.09572 17.6747 0.890326 17.6132 0.504689C17.5516 0.119052 17.1563 -0.266585 16.7799 0.248411C16.4035 0.763407 14.4481 4.17556 14.2824 4.4953ZM21.337 7.41442C20.9085 7.5511 20.9203 7.82202 21.15 8.16617C21.3796 8.51031 22.961 10.9974 23.1054 11.1707C23.2522 11.3416 23.5007 11.3855 23.7091 11.1268C23.9174 10.8705 26.5167 7.11177 26.7061 6.87746C27.0186 6.49182 26.8316 6.08422 26.3534 6.21114C25.9888 6.31121 21.6069 7.32899 21.337 7.41442ZM24.6039 14.6463C24.2962 14.4657 23.8961 14.517 23.7919 14.9246C23.6878 15.3322 23.2309 18.2928 23.1882 18.5515C23.1456 18.8102 23.335 19.0665 23.6451 19.003C23.9553 18.9396 28.2496 18.283 28.536 18.2098C29.0355 18.0804 29.2013 17.5655 28.6828 17.1798C28.3467 16.9284 24.8951 14.8172 24.6039 14.6463ZM21.1689 21.661C21.5003 21.478 21.7939 21.6171 21.8767 22.0052C21.9596 22.3908 22.8758 26.3399 23.0225 27.0697C23.0959 27.4358 22.6887 27.736 22.3573 27.5212C22.0235 27.3064 18.4062 24.7071 18.1742 24.4947C17.8405 24.1945 18.0724 23.8821 18.2358 23.7234C18.5672 23.3988 20.8564 21.8343 21.1689 21.661ZM11.0959 23.8284C10.6769 23.7869 10.5538 24.1725 10.6177 24.5142C10.6793 24.8584 11.3043 29.2102 11.3469 29.5348C11.4084 30.0059 11.889 30.2012 12.1991 29.7277C12.5092 29.2541 14.6493 25.7248 14.8221 25.3929C15.1346 24.7925 14.905 24.6631 14.5925 24.5142C14.2824 24.3653 11.5339 23.8723 11.0959 23.8284ZM5.10423 18.8298C5.39541 18.3367 5.76945 18.4661 6.04169 18.9371C6.22634 19.2593 7.78878 21.4267 7.93555 21.661C8.08233 21.8978 8.14388 22.3469 7.68698 22.4543C7.22535 22.5641 3.50155 23.5721 2.91918 23.6795C2.33682 23.7869 2.00303 23.3158 2.37707 22.8008C2.59486 22.4982 4.93851 19.1104 5.10423 18.8298ZM4.31354 15.0954C4.84619 15.3395 5.09713 15.2516 5.20839 14.8587C5.35516 14.3437 5.79075 11.9835 5.81206 11.4465C5.82626 11.0975 5.68659 10.7607 5.16578 10.8461C4.64497 10.9315 0.899853 11.4709 0.421652 11.6418C-0.13467 11.8419 -0.094425 12.4716 0.274878 12.6718C0.712834 12.9085 3.93713 14.9246 4.31354 15.0954ZM10.7858 6.08422C11.0865 5.8377 10.9941 5.4838 10.7243 5.29098C10.4544 5.09816 7.11172 2.60616 6.68797 2.26446C6.31393 1.96425 5.85467 2.07164 5.98014 2.75749C6.0701 3.25052 7.13539 7.56575 7.20878 7.86352C7.29164 8.20766 7.54257 8.37851 7.83376 8.16373C8.1202 7.95138 10.4733 6.34294 10.7858 6.08422Z" fill="#FFA722"/>
</svg>
