<svg width="208" height="80" viewBox="0 0 208 80" fill="none" xmlns="http://www.w3.org/2000/svg">
<g clip-path="url(#clip0_175_189)">
<mask id="mask0_175_189" style="mask-type:alpha" maskUnits="userSpaceOnUse" x="0" y="0" width="80" height="80">
<path fill-rule="evenodd" clip-rule="evenodd" d="M56.7296 79.4537C57.3662 79.7019 58.0471 79.8164 58.7298 79.7902C59.4126 79.7639 60.0826 79.5975 60.6983 79.3013L77.169 71.3756C78.0172 70.9673 78.7329 70.3278 79.2338 69.5307C79.7346 68.7337 80.0003 67.8114 80.0002 66.87V13.1306C80.0004 12.1891 79.7348 11.2667 79.2339 10.4695C78.7331 9.67233 78.0173 9.03274 77.169 8.62437L60.6983 0.699997C59.7676 0.252189 58.7208 0.104749 57.7026 0.278083C56.6844 0.451418 55.7453 0.936956 55.0152 1.6675L23.484 30.4337L9.75022 20.0081C9.1306 19.538 8.36598 19.2994 7.58894 19.3339C6.81189 19.3684 6.0714 19.6737 5.49585 20.1969L1.09085 24.2037C0.747567 24.516 0.473232 24.8964 0.285395 25.3207C0.0975581 25.745 0.00035393 26.2039 9.64723e-07 26.6679C-0.000352001 27.132 0.096154 27.5909 0.283345 28.0155C0.470537 28.4401 0.744292 28.821 1.0871 29.1337L12.9977 40L1.08772 50.8669C0.745104 51.1797 0.471512 51.5605 0.284437 51.985C0.0973623 52.4096 0.000918915 52.8685 0.00127184 53.3324C0.00162477 53.7963 0.0987662 54.2551 0.286487 54.6793C0.474208 55.1036 0.748378 55.484 1.09147 55.7963L5.49647 59.8031C6.07195 60.3264 6.8124 60.6318 7.58945 60.6664C8.3665 60.701 9.13115 60.4626 9.75085 59.9925L23.4846 49.5675L55.0158 78.3331C55.5039 78.821 56.0869 79.2025 56.7296 79.4537ZM60.0121 21.8394L36.0877 40L60.0127 58.1612L60.0121 21.8394Z" fill="white"/>
</mask>
<g mask="url(#mask0_175_189)">
<path d="M77.1697 8.63749L60.6859 0.699986C59.7549 0.251603 58.7075 0.103852 57.6888 0.277199C56.6701 0.450546 55.7306 0.936411 55.0003 1.66749L1.03902 50.8669C0.696146 51.1795 0.422323 51.5603 0.235083 51.9848C0.0478417 52.4094 -0.0486919 52.8684 -0.0483389 53.3324C-0.0479859 53.7964 0.0492459 54.2552 0.237132 54.6795C0.425019 55.1037 0.699421 55.4841 1.04277 55.7962L5.45027 59.8031C6.02592 60.327 6.76687 60.6328 7.54447 60.6674C8.32208 60.702 9.08725 60.4632 9.70715 59.9925L74.689 10.6956C76.869 9.04186 80.0003 10.5969 80.0003 13.3331V13.1419C80.0003 12.2007 79.7347 11.2785 79.2339 10.4816C78.7332 9.68465 78.0177 9.04585 77.1697 8.63749Z" fill="#0065A9"/>
<g filter="url(#filter0_d_175_189)">
<path d="M77.1697 71.3631L60.6859 79.2994C59.755 79.7479 58.7077 79.8959 57.689 79.7227C56.6703 79.5496 55.7307 79.064 55.0003 78.3331L1.03902 29.1331C0.696146 28.8205 0.422323 28.4397 0.235083 28.0151C0.0478417 27.5906 -0.0486919 27.1316 -0.0483389 26.6676C-0.0479859 26.2036 0.0492459 25.7448 0.237132 25.3205C0.425019 24.8962 0.699421 24.5159 1.04277 24.2037L5.45027 20.1969C6.02592 19.6729 6.76687 19.3671 7.54447 19.3325C8.32208 19.298 9.08725 19.5368 9.70715 20.0075L74.689 69.3037C76.869 70.9581 80.0003 69.4031 80.0003 66.6669V66.8581C80.0003 67.7993 79.7347 68.7214 79.2339 69.5184C78.7332 70.3153 78.0177 70.9547 77.1697 71.3631Z" fill="#007ACC"/>
</g>
<g filter="url(#filter1_d_175_189)">
<path d="M60.6867 79.3013C59.7554 79.7488 58.7081 79.896 57.6895 79.7226C56.6709 79.5491 55.7312 79.0636 55.0005 78.3331C56.8455 80.1781 60.0005 78.8713 60.0005 76.2619V3.73749C60.0005 1.12812 56.8455 -0.178757 55.0005 1.66687C55.7312 0.936361 56.6709 0.450849 57.6895 0.277422C58.7081 0.103996 59.7554 0.251218 60.6867 0.698743L77.1674 8.62499C78.016 9.0331 78.7322 9.67257 79.2334 10.4698C79.7346 11.267 80.0005 12.1896 80.0005 13.1312V66.87C80.0005 67.8117 79.7346 68.7342 79.2334 69.5315C78.7322 70.3287 78.016 70.9681 77.1674 71.3763L60.6867 79.3013Z" fill="#1F9CF0"/>
</g>
<path opacity="0.25" fill-rule="evenodd" clip-rule="evenodd" d="M56.6816 79.4538C57.3181 79.7019 57.9989 79.8163 58.6815 79.7901C59.3641 79.7639 60.0341 79.5975 60.6497 79.3013L77.1203 71.3757C77.9686 70.9673 78.6844 70.3278 79.1853 69.5306C79.6862 68.7334 79.9518 67.811 79.9516 66.8695V13.1307C79.9518 12.1892 79.6862 11.2668 79.1853 10.4696C78.6844 9.67242 77.9686 9.03283 77.1203 8.62446L60.6497 0.700089C59.719 0.25228 58.6721 0.10484 57.654 0.278175C56.6358 0.45151 55.6967 0.937047 54.9666 1.66759L23.4353 30.4338L9.70158 20.0088C9.08196 19.5387 8.31734 19.3002 7.5403 19.3346C6.76325 19.3691 6.02276 19.6744 5.44721 20.1976L1.04221 24.2045C0.699009 24.5167 0.424752 24.8972 0.23697 25.3215C0.0491881 25.7458 -0.0479859 26.2046 -0.0483389 26.6686C-0.0486918 27.1326 0.0477841 27.5916 0.23492 28.0162C0.422057 28.4408 0.695735 28.8217 1.03846 29.1345L12.9491 40.0001L1.03908 50.8663C0.696274 51.1791 0.422519 51.5599 0.235328 51.9845C0.0481361 52.4091 -0.0483699 52.8681 -0.0480169 53.3322C-0.0476639 53.7962 0.0495402 54.2551 0.237377 54.6794C0.425215 55.1037 0.699549 55.4841 1.04283 55.7963L5.44783 59.8032C6.02331 60.3265 6.76376 60.6319 7.54081 60.6665C8.31785 60.7011 9.08251 60.4627 9.70221 59.9926L23.4366 49.567L54.9678 78.3332C55.4557 78.821 56.0391 79.2025 56.6816 79.4538ZM59.9641 21.8388L36.0391 40.0001L59.9641 58.1607V21.8388Z" fill="url(#paint0_linear_175_189)"/>
</g>
</g>
<path d="M109.48 32.0312L113.605 44.9688H113.77L117.918 32.0312H121.809L115.949 49H111.426L105.543 32.0312H109.48ZM132.941 36.8828C132.801 35.5469 131.723 34.75 130.012 34.75C128.23 34.75 127.246 35.5703 127.223 36.6953C127.199 37.9141 128.488 38.4766 129.941 38.8047L131.465 39.1797C134.371 39.8359 136.551 41.3125 136.551 44.1484C136.551 47.2656 134.113 49.2344 129.988 49.2344C125.887 49.2344 123.262 47.3359 123.168 43.7031H126.59C126.707 45.4141 128.066 46.2812 129.941 46.2812C131.793 46.2812 132.988 45.4141 132.988 44.1484C132.988 43 131.934 42.4609 130.082 41.9922L128.23 41.5469C125.371 40.8438 123.613 39.4141 123.613 36.9297C123.613 33.8359 126.332 31.7969 130.035 31.7969C133.785 31.7969 136.27 33.8828 136.316 36.8828H132.941ZM155.723 37.9375C155.441 36.0625 153.988 34.9141 152.02 34.9141C149.371 34.9141 147.637 36.9531 147.637 40.5156C147.637 44.1719 149.395 46.1172 151.996 46.1172C153.941 46.1172 155.371 45.0391 155.723 43.2109L159.285 43.2344C158.887 46.375 156.262 49.2344 151.949 49.2344C147.402 49.2344 144.051 46.0469 144.051 40.5156C144.051 34.9844 147.473 31.7969 151.949 31.7969C155.863 31.7969 158.816 34.0469 159.285 37.9375H155.723ZM167.395 49.2578C163.551 49.2578 161.16 46.6094 161.16 42.6719C161.16 38.7344 163.551 36.1094 167.395 36.1094C171.238 36.1094 173.652 38.7344 173.652 42.6719C173.652 46.6094 171.238 49.2578 167.395 49.2578ZM167.418 46.5625C169.199 46.5625 170.113 44.8984 170.113 42.6719C170.113 40.4219 169.199 38.7578 167.418 38.7578C165.613 38.7578 164.676 40.4219 164.676 42.6719C164.676 44.8984 165.613 46.5625 167.418 46.5625ZM180.52 49.2109C177.613 49.2109 175.34 46.8906 175.34 42.6484C175.34 38.2891 177.707 36.1094 180.52 36.1094C182.652 36.1094 183.66 37.375 184.129 38.4062H184.246V32.0312H187.715V49H184.293V46.9609H184.129C183.637 48.0156 182.582 49.2109 180.52 49.2109ZM181.598 46.4453C183.332 46.4453 184.316 44.9219 184.316 42.625C184.316 40.3281 183.332 38.875 181.598 38.875C179.84 38.875 178.902 40.3984 178.902 42.625C178.902 44.875 179.84 46.4453 181.598 46.4453ZM196.27 49.2578C192.379 49.2578 189.988 46.7266 189.988 42.6953C189.988 38.7578 192.402 36.1094 196.129 36.1094C199.48 36.1094 202.105 38.2188 202.105 42.5547V43.5391H193.41C193.41 45.4609 194.559 46.6562 196.34 46.6562C197.512 46.6562 198.355 46.1406 198.707 45.3672H202.012C201.52 47.7109 199.41 49.2578 196.27 49.2578ZM193.41 41.3594H198.824C198.824 39.8125 197.746 38.7109 196.199 38.7109C194.605 38.7109 193.469 39.8945 193.41 41.3594Z" fill="white"/>
<defs>
<filter id="filter0_d_175_189" x="-8.38234" y="10.9953" width="96.7168" height="77.1319" filterUnits="userSpaceOnUse" color-interpolation-filters="sRGB">
<feFlood flood-opacity="0" result="BackgroundImageFix"/>
<feColorMatrix in="SourceAlpha" type="matrix" values="0 0 0 0 0 0 0 0 0 0 0 0 0 0 0 0 0 0 127 0" result="hardAlpha"/>
<feOffset/>
<feGaussianBlur stdDeviation="4.167"/>
<feColorMatrix type="matrix" values="0 0 0 0 0 0 0 0 0 0 0 0 0 0 0 0 0 0 0.25 0"/>
<feBlend mode="overlay" in2="BackgroundImageFix" result="effect1_dropShadow_175_189"/>
<feBlend mode="normal" in="SourceGraphic" in2="effect1_dropShadow_175_189" result="shape"/>
</filter>
<filter id="filter1_d_175_189" x="46.6665" y="-8.12733" width="41.668" height="96.2547" filterUnits="userSpaceOnUse" color-interpolation-filters="sRGB">
<feFlood flood-opacity="0" result="BackgroundImageFix"/>
<feColorMatrix in="SourceAlpha" type="matrix" values="0 0 0 0 0 0 0 0 0 0 0 0 0 0 0 0 0 0 127 0" result="hardAlpha"/>
<feOffset/>
<feGaussianBlur stdDeviation="4.167"/>
<feColorMatrix type="matrix" values="0 0 0 0 0 0 0 0 0 0 0 0 0 0 0 0 0 0 0.25 0"/>
<feBlend mode="overlay" in2="BackgroundImageFix" result="effect1_dropShadow_175_189"/>
<feBlend mode="normal" in="SourceGraphic" in2="effect1_dropShadow_175_189" result="shape"/>
</filter>
<linearGradient id="paint0_linear_175_189" x1="39.9516" y1="0.206339" x2="39.9516" y2="79.7938" gradientUnits="userSpaceOnUse">
<stop stop-color="white"/>
<stop offset="1" stop-color="white" stop-opacity="0"/>
</linearGradient>
<clipPath id="clip0_175_189">
<rect width="80" height="80" fill="white"/>
</clipPath>
</defs>
</svg>
